<svg width="28" height="28" viewBox="0 0 28 28" fill="none" xmlns="http://www.w3.org/2000/svg">
<path d="M21.4995 9.75C17.8895 9.75 14.9995 11.25 14.9995 12.75V22.415C14.9995 24.165 17.7945 25.5 21.4995 25.5C25.2045 25.5 27.9995 24.1725 27.9995 22.415V12.75C27.9995 11.25 25.1095 9.75 21.4995 9.75ZM26.9995 17.625C26.9995 18.61 24.647 19.71 21.4995 19.71C18.352 19.71 15.9995 18.61 15.9995 17.625V14.525C17.132 15.3775 19.127 15.92 21.4995 15.92C23.872 15.92 25.867 15.3775 26.9995 14.525V17.625ZM21.4995 10.75C24.647 10.75 26.9995 11.85 26.9995 12.835C26.9995 13.82 24.647 14.92 21.4995 14.92C18.352 14.92 15.9995 13.82 15.9995 12.835C15.9995 11.85 18.352 10.75 21.4995 10.75ZM21.4995 24.5C18.352 24.5 15.9995 23.4 15.9995 22.415V19.315C17.132 20.1675 19.127 20.71 21.4995 20.71C23.872 20.71 25.867 20.1675 26.9995 19.315V22.415C26.9995 23.4 24.647 24.5 21.4995 24.5ZM14.9645 6.25C15.2563 6.2574 15.5427 6.33046 15.8024 6.46377C16.0621 6.59708 16.2884 6.7872 16.4645 7.02C16.8357 7.48823 17.0616 8.05486 17.1145 8.65C17.1214 8.71535 17.1411 8.7787 17.1724 8.83644C17.2038 8.89418 17.2462 8.94517 17.2973 8.9865C17.3484 9.02783 17.4071 9.05868 17.4701 9.0773C17.5331 9.09592 17.5992 9.10193 17.6645 9.09501C17.796 9.08113 17.9167 9.01573 18.0001 8.91313C18.0835 8.81052 18.1228 8.67906 18.1095 8.5475C18.0385 7.75857 17.7397 7.00728 17.2495 6.385C16.9844 6.03252 16.641 5.7465 16.2464 5.54952C15.8518 5.35254 15.4168 5.25 14.9758 5.25C14.5347 5.25 14.0997 5.35254 13.7051 5.54952C13.3105 5.7465 12.9671 6.03252 12.702 6.385C12.1229 7.13321 11.8086 8.05258 11.8086 8.99875C11.8086 9.94493 12.1229 10.8643 12.702 11.6125C12.8626 11.8137 13.0381 12.0026 13.227 12.1775C13.3201 12.2602 13.44 12.3064 13.5645 12.3075C13.6343 12.3073 13.7033 12.2926 13.767 12.2642C13.8307 12.2357 13.8878 12.1943 13.9345 12.1425C13.9788 12.0938 14.013 12.0368 14.0352 11.9749C14.0574 11.9129 14.0672 11.8472 14.0639 11.7815C14.0607 11.7158 14.0445 11.6513 14.0163 11.5919C13.9881 11.5324 13.9484 11.4791 13.8995 11.435C13.7467 11.2949 13.6054 11.1427 13.477 10.98C13.0439 10.4108 12.8094 9.71526 12.8094 9C12.8094 8.28475 13.0439 7.58923 13.477 7.02C13.6519 6.78895 13.8763 6.5999 14.1336 6.46668C14.391 6.33346 14.6749 6.25943 14.9645 6.25Z" fill="#8280FF"/>
<path d="M13.5 14.5H8.7075C8.59902 13.5532 8.17378 12.6708 7.50079 11.9959C6.8278 11.3211 5.94655 10.8935 5 10.7825V7.2825C5.95849 7.16898 6.84979 6.73258 7.52726 6.04511C8.20474 5.35764 8.62803 4.46005 8.7275 3.5H21.0925C21.1899 4.50944 21.6313 5.45474 22.3427 6.17751C23.0541 6.90028 23.9922 7.35659 25 7.47V8.75C25 8.88261 25.0527 9.00979 25.1464 9.10355C25.2402 9.19732 25.3674 9.25 25.5 9.25C25.6326 9.25 25.7598 9.19732 25.8536 9.10355C25.9473 9.00979 26 8.88261 26 8.75V3C26 2.86739 25.9473 2.74021 25.8536 2.64645C25.7598 2.55268 25.6326 2.5 25.5 2.5H4.5C4.36739 2.5 4.24021 2.55268 4.14645 2.64645C4.05268 2.74021 4 2.86739 4 3V15C4 15.1326 4.05268 15.2598 4.14645 15.3536C4.24021 15.4473 4.36739 15.5 4.5 15.5H13.5C13.6326 15.5 13.7598 15.4473 13.8536 15.3536C13.9473 15.2598 14 15.1326 14 15C14 14.8674 13.9473 14.7402 13.8536 14.6464C13.7598 14.5527 13.6326 14.5 13.5 14.5ZM25 6.46C24.2591 6.35237 23.5741 6.00444 23.0502 5.46968C22.5263 4.93491 22.1924 4.24291 22.1 3.5H25V6.46ZM7.7175 3.5C7.62738 4.19544 7.31355 4.8427 6.82336 5.34417C6.33317 5.84563 5.69321 6.17409 5 6.28V3.5H7.7175ZM5 11.7925C5.68014 11.8958 6.3092 12.2146 6.79474 12.7019C7.28029 13.1892 7.59671 13.8195 7.6975 14.5H5V11.7925ZM13.5 17.5H4.5C4.36739 17.5 4.24021 17.5527 4.14645 17.6464C4.05268 17.7402 4 17.8674 4 18C4 18.1326 4.05268 18.2598 4.14645 18.3536C4.24021 18.4473 4.36739 18.5 4.5 18.5H13.5C13.6326 18.5 13.7598 18.4473 13.8536 18.3536C13.9473 18.2598 14 18.1326 14 18C14 17.8674 13.9473 17.7402 13.8536 17.6464C13.7598 17.5527 13.6326 17.5 13.5 17.5ZM13.5 20.5H4.5C4.36739 20.5 4.24021 20.5527 4.14645 20.6464C4.05268 20.7402 4 20.8674 4 21C4 21.1326 4.05268 21.2598 4.14645 21.3536C4.24021 21.4473 4.36739 21.5 4.5 21.5H13.5C13.6326 21.5 13.7598 21.4473 13.8536 21.3536C13.9473 21.2598 14 21.1326 14 21C14 20.8674 13.9473 20.7402 13.8536 20.6464C13.7598 20.5527 13.6326 20.5 13.5 20.5Z" fill="#8280FF"/>
</svg>
