<svg width="29" height="28" viewBox="0 0 29 28" fill="none" xmlns="http://www.w3.org/2000/svg">
<path d="M26.7846 20.6934H15.0814C15.4205 20.1027 15.683 19.4574 15.858 18.7793H26.7846C27.3096 18.7793 27.7361 19.2059 27.7361 19.7309C27.7471 20.2668 27.3205 20.6934 26.7846 20.6934ZM26.7846 17.8277H16.0439C16.0877 17.5105 16.1096 17.1934 16.1096 16.8762C16.1096 16.548 16.0877 16.2309 16.0439 15.9246H26.7846C27.3096 15.9246 27.7361 16.3512 27.7361 16.8762C27.7471 17.3902 27.3205 17.8277 26.7846 17.8277ZM26.7846 14.9512H15.858C15.683 14.273 15.4205 13.6277 15.0814 13.0371H26.7846C27.3096 13.0371 27.7361 13.4637 27.7361 13.9887C27.7471 14.5246 27.3205 14.9512 26.7846 14.9512ZM26.7846 12.0855H14.4252C13.8018 11.309 13.0361 10.6527 12.1611 10.1715H26.7846C27.3096 10.1715 27.7361 10.598 27.7361 11.123C27.7361 11.648 27.3205 12.0855 26.7846 12.0855ZM26.7846 9.21992H11.4939C10.9689 9.21992 10.5424 8.79336 10.5424 8.26836C10.5424 7.74336 10.9689 7.3168 11.4939 7.3168H26.7846C27.3096 7.3168 27.7361 7.74336 27.7361 8.26836C27.7471 8.79336 27.3205 9.21992 26.7846 9.21992ZM26.7846 6.3543H11.4939C10.9689 6.3543 10.5424 5.92773 10.5424 5.40273C10.5424 4.87773 10.9689 4.45117 11.4939 4.45117H26.7846C27.3096 4.45117 27.7361 4.87773 27.7361 5.40273C27.7471 5.92773 27.3205 6.3543 26.7846 6.3543ZM15.3111 16.8652C15.3111 20.5621 12.3143 23.559 8.61738 23.559C4.93145 23.559 1.93457 20.5621 1.93457 16.8652C1.93457 13.1684 4.93145 10.1715 8.62832 10.1715C12.3252 10.1715 15.3111 13.1684 15.3111 16.8652ZM10.9908 17.598C10.8924 17.3684 10.7721 17.1715 10.6189 16.9965C10.4658 16.8324 10.2908 16.6793 10.083 16.559C9.88613 16.4387 9.67832 16.3293 9.47051 16.2309C9.2627 16.1324 9.05488 16.0449 8.85801 15.9574C8.66113 15.8699 8.48613 15.7824 8.32207 15.684C8.15801 15.5855 8.0377 15.4762 7.9502 15.3449C7.8627 15.2137 7.80801 15.0715 7.80801 14.8965C7.80801 14.7762 7.82988 14.6777 7.87363 14.5684C7.91738 14.4699 7.98301 14.3715 8.07051 14.3059C8.15801 14.2293 8.26738 14.1746 8.3877 14.1309C8.51895 14.0871 8.66113 14.0652 8.83613 14.0652C9.05488 14.0652 9.25176 14.0871 9.4377 14.1418C9.62363 14.1965 9.7877 14.2512 9.91895 14.3168C10.0611 14.3824 10.1814 14.448 10.2689 14.5027C10.3674 14.5574 10.433 14.5902 10.4768 14.5902C10.5205 14.5902 10.5533 14.5793 10.5861 14.5574C10.608 14.5355 10.6299 14.4918 10.6518 14.448C10.6627 14.3934 10.6736 14.3277 10.6846 14.2512C10.6846 14.1746 10.6955 14.0762 10.6955 13.9559C10.6955 13.8574 10.6955 13.7699 10.6955 13.6934C10.6955 13.6277 10.6846 13.5621 10.6736 13.5184C10.6627 13.4746 10.6518 13.4418 10.6408 13.409C10.6299 13.3762 10.5971 13.3434 10.5643 13.3105C10.5205 13.2668 10.4439 13.223 10.3236 13.1684C10.2033 13.1027 10.0611 13.059 9.89707 13.0043C9.73301 12.9496 9.56895 12.9168 9.38301 12.8949C9.3502 12.8949 9.30645 12.8949 9.27363 12.884V11.8996H8.33301V12.884C8.15801 12.9059 7.99395 12.9387 7.82988 12.9824C7.5127 13.0699 7.23926 13.2121 7.00957 13.398C6.77988 13.584 6.59395 13.8137 6.45176 14.098C6.30957 14.3824 6.24395 14.6996 6.24395 15.0715C6.24395 15.3887 6.2877 15.673 6.38613 15.9027C6.48457 16.1324 6.60488 16.3293 6.75801 16.5043C6.91113 16.6684 7.08613 16.8215 7.28301 16.9418C7.47988 17.0621 7.67676 17.1715 7.88457 17.2699C8.09238 17.3684 8.28926 17.4559 8.48613 17.5434C8.68301 17.6309 8.85801 17.7184 9.01113 17.8168C9.16426 17.9152 9.28457 18.0246 9.38301 18.1559C9.48145 18.2871 9.5252 18.4293 9.5252 18.6043C9.5252 18.7574 9.49238 18.8887 9.4377 19.0199C9.38301 19.1402 9.29551 19.2496 9.19707 19.3262C9.0877 19.4137 8.96738 19.4684 8.81426 19.523C8.66113 19.5668 8.49707 19.5887 8.30019 19.5887C8.01582 19.5887 7.75332 19.5559 7.53457 19.4902C7.31582 19.4246 7.11895 19.348 6.96582 19.2715C6.8127 19.1949 6.68145 19.1184 6.57207 19.0527C6.47363 18.9871 6.39707 18.9543 6.33145 18.9543C6.2877 18.9543 6.25488 18.9652 6.22207 18.9871C6.18926 19.009 6.16738 19.0418 6.14551 19.0965C6.12363 19.1512 6.1127 19.2168 6.10176 19.3043C6.09082 19.3918 6.09082 19.4902 6.09082 19.6105C6.09082 19.7965 6.10176 19.9387 6.12363 20.0371C6.14551 20.1355 6.17832 20.2121 6.23301 20.2559C6.2877 20.3105 6.3752 20.3652 6.48457 20.4309C6.60488 20.4965 6.74707 20.5621 6.92207 20.6277C7.09707 20.6934 7.29395 20.7371 7.52363 20.7809C7.75332 20.8246 8.00488 20.8465 8.26738 20.8465C8.27832 20.8465 8.28926 20.8465 8.30019 20.8465V21.7652H9.24082V20.7262C9.28457 20.7152 9.32832 20.7152 9.38301 20.6934C9.73301 20.5949 10.0283 20.4309 10.2908 20.234C10.5533 20.0262 10.7502 19.7746 10.9033 19.4684C11.0564 19.1621 11.133 18.8012 11.133 18.3965C11.133 18.0902 11.0893 17.8277 10.9908 17.598ZM14.4361 21.6449H26.7955C27.3205 21.6449 27.7471 22.0715 27.7471 22.5965C27.7471 23.1215 27.3205 23.548 26.7955 23.548H12.1611C13.0361 23.0777 13.8127 22.4215 14.4361 21.6449Z" fill="#8280FF"/>
</svg>
