<svg width="29" height="28" viewBox="0 0 29 28" fill="none" xmlns="http://www.w3.org/2000/svg">
<g clip-path="url(#clip0_5359_215028)">
<path d="M25.3956 11.2H23.2955V7.7C23.2955 7.31336 22.9822 7 22.5955 7H19.7955C19.409 7 19.0957 7.31336 19.0957 7.7C19.0957 8.08648 19.409 8.3999 19.7955 8.3999H21.8956V11.1999H3.69552C2.92218 11.1999 2.29541 10.5731 2.29541 9.79996C2.29541 9.02668 2.92213 8.3999 3.69547 8.3999H7.19549C7.58213 8.3999 7.89555 8.08654 7.89555 7.69984C7.89555 7.31336 7.58219 7 7.19554 7H3.69552C2.14966 7.00148 0.89693 8.25421 0.895508 9.80002V25.1999C0.897203 26.7457 2.14972 27.9982 3.69552 28H25.3956C25.7821 28 26.0955 27.6865 26.0955 27.3001V11.8999C26.0955 11.5134 25.7821 11.2 25.3956 11.2ZM3.69552 26.6001C2.92257 26.5995 2.29623 25.9731 2.29541 25.2002V12.2107C2.71911 12.4627 3.20245 12.5971 3.69547 12.5999H24.6956V16.8001H19.7955C19.409 16.8001 19.0957 17.1134 19.0957 17.5001V21.7001C19.0957 22.0866 19.409 22.4 19.7955 22.4H24.6956V26.6001H3.69552ZM24.6956 21.0001H20.4955V18.2001H24.6956V21.0001Z" fill="#8280FF"/>
<path d="M13.9337 9.64704C13.8094 9.74611 13.6551 9.80005 13.4962 9.80005C13.3372 9.80005 13.183 9.74611 13.0587 9.64704L9.55865 6.84708C9.25656 6.60547 9.20766 6.16457 9.44928 5.8627C9.69089 5.56066 10.1316 5.51149 10.4337 5.75332L12.7961 7.6441V0.700059C12.7961 0.313361 13.1094 0 13.4961 0C13.8825 0 14.1959 0.313361 14.1959 0.700004V7.64388L16.5584 5.75354C16.8605 5.51171 17.3012 5.56088 17.5428 5.86292C17.7844 6.16479 17.7355 6.60569 17.4334 6.8473L13.9337 9.64704Z" fill="#8280FF"/>
</g>
<defs>
<clipPath id="clip0_5359_215028">
<rect width="28" height="28" fill="white" transform="translate(0.463867)"/>
</clipPath>
</defs>
</svg>
