<svg width="29" height="28" viewBox="0 0 29 28" fill="none" xmlns="http://www.w3.org/2000/svg">
<g clip-path="url(#clip0_5359_215018)">
<path d="M25.3947 11.2H23.2945V7.7C23.2945 7.31336 22.9812 7 22.5945 7H19.7945C19.4081 7 19.0947 7.31336 19.0947 7.7C19.0947 8.08648 19.4081 8.3999 19.7945 8.3999H21.8947V11.1999H3.69455C2.92121 11.1999 2.29443 10.5731 2.29443 9.79996C2.29443 9.02668 2.92115 8.3999 3.69449 8.3999H7.19451C7.58116 8.3999 7.89457 8.08654 7.89457 7.69984C7.89457 7.31336 7.58121 7 7.19457 7H3.69455C2.14869 7.00148 0.895953 8.25421 0.894531 9.80002V25.1999C0.896227 26.7457 2.14874 27.9982 3.69455 28H25.3947C25.7811 28 26.0945 27.6865 26.0945 27.3001V11.8999C26.0945 11.5134 25.7812 11.2 25.3947 11.2ZM3.69455 26.6001C2.92159 26.5995 2.29525 25.9731 2.29443 25.2002V12.2107C2.71814 12.4627 3.20147 12.5971 3.69449 12.5999H24.6946V16.8001H19.7945C19.4081 16.8001 19.0947 17.1134 19.0947 17.5001V21.7001C19.0947 22.0866 19.4081 22.4 19.7945 22.4H24.6946V26.6001H3.69455ZM24.6947 21.0001H20.4945V18.2001H24.6947V21.0001Z" fill="#8280FF"/>
<path d="M13.9327 0.152765C13.8084 0.0536985 13.6542 -0.000247717 13.4952 -0.000247717C13.3362 -0.000247717 13.182 0.0536985 13.0577 0.152765L9.55767 2.95273C9.25558 3.19434 9.20669 3.63523 9.4483 3.93711C9.68991 4.23915 10.1306 4.28831 10.4327 4.04648L12.7951 2.15571V9.09975C12.7951 9.48644 13.1084 9.7998 13.4951 9.7998C13.8816 9.7998 14.1949 9.48644 14.1949 9.0998V2.15592L16.5574 4.04626C16.8595 4.28809 17.3002 4.23893 17.5418 3.93689C17.7834 3.63501 17.7345 3.19412 17.4324 2.95251L13.9327 0.152765Z" fill="#8280FF"/>
</g>
<defs>
<clipPath id="clip0_5359_215018">
<rect width="28" height="28" fill="white" transform="translate(0.463867)"/>
</clipPath>
</defs>
</svg>
