<svg width="31" height="31" viewBox="0 0 31 31" fill="none" xmlns="http://www.w3.org/2000/svg">
<path d="M15.6446 28.6271C23.0113 28.6271 29.004 22.6344 29.004 15.2676C29.004 7.90086 23.0113 1.9082 15.6446 1.9082C8.27781 1.9082 2.28516 7.90086 2.28516 15.2676C2.28516 22.6344 8.27781 28.6271 15.6446 28.6271ZM15.6446 3.81669C21.9617 3.81669 27.0955 8.95053 27.0955 15.2676C27.0955 21.5847 21.9617 26.7186 15.6446 26.7186C9.32748 26.7186 4.19365 21.5847 4.19365 15.2676C4.19365 8.95053 9.32748 3.81669 15.6446 3.81669Z" fill="#8280FF"/>
<path d="M9.91923 14.3133H21.3702C21.6232 14.3133 21.866 14.2128 22.0449 14.0338C22.2239 13.8549 22.3244 13.6122 22.3244 13.3591C22.3244 13.106 22.2239 12.8633 22.0449 12.6843C21.866 12.5054 21.6232 12.4048 21.3702 12.4048H11.7027L12.6217 11.026C12.7621 10.8154 12.8132 10.5577 12.7636 10.3095C12.714 10.0612 12.5679 9.84289 12.3573 9.70243C12.1468 9.56197 11.889 9.51091 11.6408 9.56048C11.3926 9.61005 11.1742 9.75619 11.0338 9.96675L9.1253 12.8295C9.02942 12.9732 8.97435 13.1402 8.96597 13.3128C8.95759 13.4854 8.99621 13.6569 9.07771 13.8093C9.15921 13.9616 9.28053 14.0889 9.42874 14.1777C9.57695 14.2665 9.74647 14.3134 9.91923 14.3133ZM9.91923 18.1303H19.5876L18.6677 19.5092C18.5982 19.6135 18.5499 19.7304 18.5255 19.8533C18.5012 19.9763 18.5013 20.1028 18.5258 20.2257C18.5503 20.3486 18.5989 20.4655 18.6686 20.5696C18.7383 20.6738 18.8278 20.7632 18.9321 20.8327C19.1426 20.9732 19.4004 21.0243 19.6486 20.9747C19.8968 20.9251 20.1151 20.779 20.2556 20.5684L22.1641 17.7057C22.2596 17.5619 22.3144 17.3949 22.3226 17.2225C22.3309 17.05 22.2922 16.8786 22.2108 16.7264C22.1293 16.5742 22.0081 16.4469 21.8601 16.358C21.7121 16.2692 21.5428 16.2221 21.3702 16.2218H9.91923C9.66615 16.2218 9.42343 16.3224 9.24448 16.5013C9.06552 16.6803 8.96499 16.923 8.96499 17.1761C8.96499 17.4292 9.06552 17.6719 9.24448 17.8508C9.42343 18.0298 9.66615 18.1303 9.91923 18.1303Z" fill="#8280FF"/>
</svg>
