<svg width="24" height="20" viewBox="0 0 24 20" fill="none" xmlns="http://www.w3.org/2000/svg">
<path d="M21.881 8.75954C21.5528 8.75954 21.238 8.88981 21.0058 9.12174C20.7736 9.35367 20.6429 9.66829 20.6425 9.9965C20.6421 10.1594 20.6738 10.3208 20.7359 10.4714C20.7979 10.622 20.8891 10.7589 21.0041 10.8743C21.1192 10.9896 21.2559 11.0811 21.4063 11.1436C21.5568 11.206 21.7181 11.2381 21.881 11.2381C22.044 11.2383 22.2055 11.2064 22.3562 11.144C22.5068 11.0817 22.6437 10.9902 22.7589 10.8748C22.8741 10.7595 22.9654 10.6225 23.0276 10.4718C23.0897 10.3211 23.1215 10.1595 23.1211 9.9965C23.1209 9.83385 23.0886 9.67284 23.0262 9.52266C22.9638 9.37247 22.8724 9.23605 22.7572 9.12119C22.6421 9.00633 22.5054 8.91527 22.3551 8.85322C22.2047 8.79116 22.0437 8.75933 21.881 8.75954ZM9.08242 0.91504C8.91932 0.914811 8.75778 0.9468 8.60707 1.00917C8.45636 1.07154 8.31946 1.16306 8.20422 1.27849L0.362844 9.12298C0.24781 9.23799 0.156559 9.37454 0.0943012 9.52482C0.0320438 9.6751 0 9.83617 0 9.99884C0 10.1615 0.0320438 10.3226 0.0943012 10.4729C0.156559 10.6231 0.24781 10.7597 0.362844 10.8747L8.20422 18.7208C8.31926 18.836 8.4559 18.9275 8.60633 18.9899C8.75675 19.0523 8.91801 19.0844 9.08086 19.0844C9.24371 19.0844 9.40497 19.0523 9.55539 18.9899C9.70581 18.9275 9.84246 18.836 9.9575 18.7208C10.0728 18.6057 10.1642 18.4691 10.2266 18.3186C10.289 18.1682 10.3211 18.007 10.3211 17.8441C10.3211 17.6813 10.289 17.52 10.2266 17.3696C10.1642 17.2192 10.0728 17.0825 9.9575 16.9675L4.2266 11.2381H18.1654C18.4943 11.2381 18.8097 11.1075 19.0423 10.8749C19.2749 10.6424 19.4055 10.327 19.4055 9.99806C19.4055 9.66917 19.2749 9.35375 19.0423 9.12119C18.8097 8.88863 18.4943 8.75798 18.1654 8.75798H4.22972L9.9575 3.0302C10.0725 2.91519 10.1638 2.77864 10.226 2.62836C10.2883 2.47808 10.3203 2.31701 10.3203 2.15434C10.3203 1.99168 10.2883 1.8306 10.226 1.68032C10.1638 1.53004 10.0725 1.3935 9.9575 1.27849C9.72589 1.04652 9.41021 0.91582 9.08242 0.91504Z" fill="#413E4E"/>
</svg>
