<svg xmlns="http://www.w3.org/2000/svg" version="1.1" xmlns:xlink="http://www.w3.org/1999/xlink"
    width="512" height="512" x="0" y="0" viewBox="0 0 682.667 682.667"
    style="enable-background:new 0 0 512 512" xml:space="preserve" class=""><g><defs><clipPath id="a" clipPathUnits="userSpaceOnUse"><path d="M0 512h512V0H0Z" fill="#494949" opacity="1" data-original="#494949"></path></clipPath></defs><g clip-path="url(#a)" transform="matrix(1.33333 0 0 -1.33333 0 682.667)"><path d="M0 0v-46.989s-3.759-93.288 86.072-93.288 86.073 93.288 86.073 93.288V0" style="stroke-width:30;stroke-linecap:round;stroke-linejoin:round;stroke-miterlimit:10;stroke-dasharray:none;stroke-opacity:1" transform="translate(169.928 155.283)" fill="none" stroke="#494949" stroke-width="0" stroke-linecap="round" stroke-linejoin="round" stroke-miterlimit="10" stroke-dasharray="none" stroke-opacity="" data-original="#494949" class=""></path><path d="m0 0 136.671-58.149a30 30 0 0 0 18.255-27.598l.002-7.545h-482l.001 7.544a30.001 30.001 0 0 0 18.255 27.6L-172.145 0" style="stroke-width:30;stroke-linecap:round;stroke-linejoin:round;stroke-miterlimit:10;stroke-dasharray:none;stroke-opacity:1" transform="translate(342.072 108.294)" fill="none" stroke="#494949" stroke-width="30" stroke-linecap="round" stroke-linejoin="round" stroke-miterlimit="10" stroke-dasharray="none" stroke-opacity="" data-original="#494949" class=""></path><path d="M0 0c-65.059 0-112.046 47.906-112.046 107v123.179C-89 340.499-32.112 279.832 0 279.832c32.112 0 86.072 60.667 112.046-49.653V107C112.046 47.906 65.059 0 0 0Z" style="stroke-width:30;stroke-linecap:round;stroke-linejoin:round;stroke-miterlimit:10;stroke-dasharray:none;stroke-opacity:1" transform="translate(256 118.17)" fill="none" stroke="#494949" stroke-width="30" stroke-linecap="round" stroke-linejoin="round" stroke-miterlimit="10" stroke-dasharray="none" stroke-opacity="" data-original="#494949" class=""></path><path d="M0 0h-40c-16.568 0-30 13.431-30 30v64.51c0 16.568 13.432 30 30 30H0Z" style="stroke-width:30;stroke-linecap:round;stroke-linejoin:round;stroke-miterlimit:10;stroke-dasharray:none;stroke-opacity:1" transform="translate(143.954 223.839)" fill="none" stroke="#494949" stroke-width="30" stroke-linecap="round" stroke-linejoin="round" stroke-miterlimit="10" stroke-dasharray="none" stroke-opacity="" data-original="#494949" class=""></path><path d="M0 0h-40v124.51H0c16.569 0 30-13.432 30-30V30C30 13.431 16.569 0 0 0Z" style="stroke-width:30;stroke-linecap:round;stroke-linejoin:round;stroke-miterlimit:10;stroke-dasharray:none;stroke-opacity:1" transform="translate(408.046 223.839)" fill="none" stroke="#494949" stroke-width="30" stroke-linecap="round" stroke-linejoin="round" stroke-miterlimit="10" stroke-dasharray="none" stroke-opacity="" data-original="#494949" class=""></path><path d="m0 0-35.211-23.48a70.007 70.007 0 0 0-38.836-11.761h-25.369" style="stroke-width:30;stroke-linecap:round;stroke-linejoin:round;stroke-miterlimit:10;stroke-dasharray:none;stroke-opacity:1" transform="translate(368.046 223.839)" fill="none" stroke="#494949" stroke-width="30" stroke-linecap="round" stroke-linejoin="round" stroke-miterlimit="10" stroke-dasharray="none" stroke-opacity="" data-original="#494949" class=""></path><path d="M0 0v5.189C0 84.42-33.461 148.65-143.461 148.65c-110 0-143.461-64.23-143.461-143.461V0" style="stroke-width:30;stroke-linecap:round;stroke-linejoin:round;stroke-miterlimit:10;stroke-dasharray:none;stroke-opacity:1" transform="translate(399.461 348.349)" fill="none" stroke="#494949" stroke-width="30" stroke-linecap="round" stroke-linejoin="round" stroke-miterlimit="10" stroke-dasharray="none" stroke-opacity="" data-original="#494949" class=""></path></g></g></svg>
