<svg xmlns="http://www.w3.org/2000/svg" version="1.1" xmlns:xlink="http://www.w3.org/1999/xlink"
    width="24" height="24" x="0" y="0" viewBox="0 0 512 512"
    style="enable-background:new 0 0 512 512" xml:space="preserve" class=""><g><path d="M158.588 234.795a107.117 107.117 0 0 0-28.181 6.873V86.839c0-15.428 12.584-28.012 28.012-28.012h58.616v28.181h-58.448v147.788zM473.11 58.827h-58.616v28.181h58.448v385.811H158.588v-23.632a107.286 107.286 0 0 1-28.18-6.878v30.679c0 15.428 12.583 28.012 28.012 28.012h314.691c15.428 0 28.012-12.584 28.012-28.012V86.839c0-15.428-12.584-28.012-28.012-28.012zM315.765 94.288h-84.729V58.827c0-4.984 1.999-9.275 5.815-12.482s8.387-4.437 13.297-3.579l32.667 5.71V43.95c0-18.198 14.753-32.951 32.951-32.951s32.951 14.753 32.951 32.951v4.526l32.667-5.71c4.91-.858 9.481.372 13.297 3.579 3.816 3.206 5.815 7.497 5.815 12.482v35.461h-84.73zm0-41.494c5.618 0 10.2-4.582 10.2-10.2s-4.582-10.2-10.2-10.2-10.2 4.582-10.2 10.2 4.582 10.2 10.2 10.2zm114.787 332.678h-139.98a7 7 0 1 0 0 14h139.98a7 7 0 1 0 0-14zm-158.931 53.979h158.931a7 7 0 1 0 0-14H271.621a7 7 0 1 0 0 14zm158.931-133.938H295.305a7 7 0 1 0 0 14h135.247a7 7 0 1 0 0-14zm0-39.979H277.461a7 7 0 1 0 0 14h153.091a7 7 0 1 0 0-14zm0 79.958H297.751a7 7 0 1 0 0 14h132.801a7 7 0 1 0 0-14zm-260.666 90.282c-17.489 0-33.86-4.788-47.873-13.124-6.403-3.809-14.314-2.82-19.583 2.448l-2.356 2.356c3.354 3.815 3.212 9.663-.429 13.304l-54.357 54.357c-7.845 7.845-20.682 7.845-28.527 0-7.846-7.846-7.846-20.682 0-28.528l54.357-54.357c3.641-3.641 9.49-3.783 13.304-.429l2.356-2.356c5.269-5.269 6.258-13.18 2.448-19.583-8.336-14.013-13.124-30.384-13.124-47.873 0-51.796 41.989-93.785 93.784-93.785s93.784 41.989 93.784 93.784-41.988 93.784-93.784 93.784zm0-20.392c40.533 0 73.392-32.858 73.392-73.392s-32.859-73.392-73.392-73.392-73.392 32.859-73.392 73.392 32.859 73.392 73.392 73.392zm197.385-186.468H264.258c-5.232 0-9.724-2.593-12.34-7.124s-2.616-9.718 0-14.249l51.506-89.212c2.616-4.531 7.108-7.124 12.34-7.124s9.723 2.593 12.34 7.124l51.506 89.212c2.616 4.531 2.616 9.718 0 14.249s-7.108 7.124-12.34 7.124zm-58.506-46.887a7 7 0 1 0 14 0v-36.212a7 7 0 1 0-14 0zm15.25 24.026a8.25 8.25 0 1 0-16.5 0 8.25 8.25 0 0 0 16.5 0zM177.827 385.384v-2.033a7.995 7.995 0 1 0-15.988 0v2.033c0 4.421 3.572 7.997 7.994 7.997s7.994-3.576 7.994-7.997zm2.573-74.442c2.948 3.208 3.732 8.44 1.966 13.01-1.043 2.706-4.318 6.122-7.221 9.137-1.314 1.361-2.661 2.765-3.897 4.182-4.384 5.048-9.407 12.324-9.407 23.875 0 4.419 3.572 7.994 7.994 7.994s7.994-3.575 7.994-7.994c0-5.872 2.104-9.482 5.504-13.388.96-1.108 2.114-2.32 3.34-3.588 3.941-4.099 8.419-8.75 10.621-14.462 3.953-10.267 1.954-21.874-5.117-29.572-5.554-6.066-13.686-9.538-22.298-9.538-14.779 0-27.388 11.046-29.332 25.702a8.004 8.004 0 0 0 6.885 8.977c4.378.572 8.397-2.502 8.965-6.877.894-6.739 6.686-11.809 13.482-11.809 4.091 0 8.022 1.633 10.522 4.352z" fill="#494949" opacity="1" data-original="#494949"></path></g></svg>
