<svg xmlns="http://www.w3.org/2000/svg" version="1.1" xmlns:xlink="http://www.w3.org/1999/xlink"
    width="512" height="512" x="0" y="0" viewBox="0 0 64 64"
    style="enable-background:new 0 0 512 512" xml:space="preserve" class=""><g><path d="M42.5 57.5H14A4.505 4.505 0 0 1 9.5 53V33a1.5 1.5 0 0 1 3 0v20c0 .827.673 1.5 1.5 1.5h28.5a1.5 1.5 0 0 1 0 3zM48 26.5a1.5 1.5 0 0 1-1.5-1.5V11c0-.827-.673-1.5-1.5-1.5H21.48a1.5 1.5 0 0 1 0-3H45c2.481 0 4.5 2.019 4.5 4.5v14a1.5 1.5 0 0 1-1.5 1.5z" fill="#000000" opacity="1" data-original="#000000" class=""></path><path d="M24 34.5H8A4.505 4.505 0 0 1 3.5 30V18c0-2.481 2.019-4.5 4.5-4.5h16c2.481 0 4.5 2.019 4.5 4.5v12c0 2.481-2.019 4.5-4.5 4.5zm-16-18c-.827 0-1.5.673-1.5 1.5v12c0 .827.673 1.5 1.5 1.5h16c.827 0 1.5-.673 1.5-1.5V18c0-.827-.673-1.5-1.5-1.5z" fill="#000000" opacity="1" data-original="#000000" class=""></path><circle cx="16" cy="22.209" r="3.209" fill="#000000" opacity="1" data-original="#000000" class=""></circle><path d="M16 29.5a1.5 1.5 0 0 1-1.5-1.5v-3.418a1.5 1.5 0 0 1 3 0V28a1.5 1.5 0 0 1-1.5 1.5zM22.5 16.5A1.5 1.5 0 0 1 21 15v-3.5a5.006 5.006 0 0 0-8.543-3.534A4.994 4.994 0 0 0 11 11.5V15a1.5 1.5 0 0 1-3 0v-3.5a7.987 7.987 0 0 1 8-8c4.411 0 8 3.589 8 8V15a1.5 1.5 0 0 1-1.5 1.5zM42 22.5h-9a1.5 1.5 0 0 1 0-3h9a1.5 1.5 0 0 1 0 3zM42 28.5h-9a1.5 1.5 0 0 1 0-3h9a1.5 1.5 0 0 1 0 3zM31 40.5H17a1.5 1.5 0 0 1 0-3h14a1.5 1.5 0 0 1 0 3zM31 46.5H17a1.5 1.5 0 0 1 0-3h14a1.5 1.5 0 0 1 0 3zM48 60.5c-.247 0-.494-.062-.718-.184l-7.873-4.294a7.496 7.496 0 0 1-3.909-6.584V34.28a1.5 1.5 0 0 1 1.071-1.437l11-3.28c.268-.08.554-.084.824-.01l11 2.999a1.5 1.5 0 0 1 1.105 1.447v15.44a7.497 7.497 0 0 1-3.908 6.583l-7.874 4.294c-.224.122-.47.184-.718.184zm-9.5-25.102v14.04a4.5 4.5 0 0 0 2.346 3.952L48 57.29l7.155-3.901a4.5 4.5 0 0 0 2.345-3.952V35.145l-9.481-2.585z" fill="#000000" opacity="1" data-original="#000000" class=""></path><path d="M47 48.501c-.315 0-.632-.099-.9-.3l-4-3a1.501 1.501 0 0 1 1.8-2.4l2.96 2.22 5.08-5.082a1.5 1.5 0 1 1 2.12 2.122l-6 6c-.29.292-.674.44-1.06.44z" fill="#000000" opacity="1" data-original="#000000" class=""></path></g></svg>
