<svg xmlns="http://www.w3.org/2000/svg" version="1.1" xmlns:xlink="http://www.w3.org/1999/xlink"
    width="512" height="512" x="0" y="0" viewBox="0 0 24 24"
    style="enable-background:new 0 0 512 512" xml:space="preserve" fill-rule="evenodd" class=""><g><path d="M20.48 8.301A9.217 9.217 0 0 1 21.25 12c0 5.105-4.145 9.25-9.25 9.25S2.75 17.105 2.75 12 6.895 2.75 12 2.75a.75.75 0 0 0 0-1.5C6.067 1.25 1.25 6.067 1.25 12S6.067 22.75 12 22.75 22.75 17.933 22.75 12c0-1.529-.32-2.983-.896-4.301a.75.75 0 0 0-1.374.602z" fill="currentColor" opacity="1" data-original="#494949"></path><path d="M17 1.25a3.443 3.443 0 0 0-3.442 3.442c0 .594.269 1.317.685 2.023.835 1.421 2.227 2.815 2.227 2.815a.749.749 0 0 0 1.06 0s1.392-1.394 2.227-2.815c.416-.706.685-1.429.685-2.023 0-1.9-1.542-3.442-3.442-3.442zm0 1.5c1.072 0 1.942.87 1.942 1.942 0 .528-.393 1.177-.815 1.789A15.328 15.328 0 0 1 17 7.901c-.325-.366-.75-.874-1.127-1.42-.422-.612-.815-1.261-.815-1.789 0-1.072.87-1.942 1.942-1.942zM1.603 12.636l3.27 2.044c.596.372 1.285.57 1.987.57h.76c.657 0 1.281.287 1.709.786l1.051 1.227a2.25 2.25 0 0 1 .456 2.082l-.557 1.949a.75.75 0 0 0 1.442.412l.557-1.949a3.748 3.748 0 0 0-.759-3.47l-1.052-1.227a3.746 3.746 0 0 0-2.847-1.31h-.76c-.421 0-.834-.118-1.192-.342l-3.271-2.044a.75.75 0 1 0-.794 1.272z" fill="currentColor" opacity="1" data-original="#494949"></path><path d="m5.329 4.335 1.596 3.192a2.748 2.748 0 0 0 1.757 1.429l1.758.465c.443.117.786.467.894.912l.753 3.087a2.75 2.75 0 0 0 1.146 1.637l.466.31a2.746 2.746 0 0 0 3.985-1.058l.575-1.151a1.25 1.25 0 0 1 .815-.653l2.791-.698a.75.75 0 0 0-.364-1.455l-2.791.697a2.752 2.752 0 0 0-1.792 1.438l-.576 1.151a1.246 1.246 0 0 1-1.811.481l-.466-.31a1.25 1.25 0 0 1-.521-.744l-.752-3.087a2.75 2.75 0 0 0-1.969-2.007l-1.758-.465a1.247 1.247 0 0 1-.798-.65L6.671 3.665a.75.75 0 1 0-1.342.67z" fill="currentColor" opacity="1" data-original="#494949"></path></g></svg>
