<svg xmlns="http://www.w3.org/2000/svg" version="1.1" xmlns:xlink="http://www.w3.org/1999/xlink"
    width="512" height="512" x="0" y="0" viewBox="0 0 682.667 682.667"
    style="enable-background:new 0 0 512 512" xml:space="preserve" class=""><g><defs><clipPath id="a" clipPathUnits="userSpaceOnUse"><path d="M0 512h512V0H0Z" fill="#494949" opacity="1" data-original="#494949"></path></clipPath></defs><g clip-path="url(#a)" transform="matrix(1.33333 0 0 -1.33333 0 682.667)"><path d="M0 0c0-26.622-21.577-48.2-48.199-48.2v-.016c0-26.614-21.571-48.183-48.185-48.183h-.015l-.008-.009A68.16 68.16 0 0 0-144.6-116.37a68.16 68.16 0 0 0-48.192 19.962L-337.399 48.2l96.407 96.408a68.152 68.152 0 0 0 96.385 0l.007-.007-72.299-72.301.007-.008c26.615-26.614 69.77-26.614 96.384 0L-96.399 96.4Z" style="stroke-width:30;stroke-linecap:round;stroke-linejoin:round;stroke-miterlimit:10;stroke-dasharray:none;stroke-opacity:1" transform="translate(400.6 217.785)" fill="none" stroke="#494949" stroke-width="30" stroke-linecap="round" stroke-linejoin="round" stroke-miterlimit="10" stroke-dasharray="none" stroke-opacity="" data-original="#494949" class=""></path><path d="m0 0 72.308 72.309a68.156 68.156 0 0 0 96.384 0L265.1-24.1l-48.201-48.2L120.5 24.101 96.392-.008c-26.615-26.614-69.77-26.614-96.384 0z" style="stroke-width:30;stroke-linecap:round;stroke-linejoin:round;stroke-miterlimit:10;stroke-dasharray:none;stroke-opacity:1" transform="translate(183.7 290.085)" fill="none" stroke="#494949" stroke-width="30" stroke-linecap="round" stroke-linejoin="round" stroke-miterlimit="10" stroke-dasharray="none" stroke-opacity="" data-original="#494949" class=""></path><path d="m0 0-96.399-96.4-48.201 48.2 96.401 96.399z" style="stroke-width:30;stroke-linecap:round;stroke-linejoin:round;stroke-miterlimit:10;stroke-dasharray:none;stroke-opacity:1" transform="translate(159.6 362.386)" fill="none" stroke="#494949" stroke-width="30" stroke-linecap="round" stroke-linejoin="round" stroke-miterlimit="10" stroke-dasharray="none" stroke-opacity="" data-original="#494949" class=""></path><path d="m0 0 96.399-96.4L144.6-48.2 48.199 48.199Z" style="stroke-width:30;stroke-linecap:round;stroke-linejoin:round;stroke-miterlimit:10;stroke-dasharray:none;stroke-opacity:1" transform="translate(352.4 362.386)" fill="none" stroke="#494949" stroke-width="30" stroke-linecap="round" stroke-linejoin="round" stroke-miterlimit="10" stroke-dasharray="none" stroke-opacity="" data-original="#494949" class=""></path></g></g></svg>
