<svg xmlns="http://www.w3.org/2000/svg" version="1.1" xmlns:xlink="http://www.w3.org/1999/xlink"
    width="512" height="512" x="0" y="0" viewBox="0 0 56 58"
    style="enable-background:new 0 0 512 512" xml:space="preserve" class=""><g><path d="M11 45h34a1 1 0 0 0 0-2h-4V22a1 1 0 0 0-1-1h-2a1 1 0 0 0-1 1v21h-4V26a1 1 0 0 0-1-1h-2a1 1 0 0 0-1 1v17h-4V30a1 1 0 0 0-1-1h-2a1 1 0 0 0-1 1v13h-4v-7a1 1 0 0 0-1-1h-2a1 1 0 0 0-1 1v7h-2a1 1 0 0 0 0 2zM12.141 29.511a1 1 0 0 0 1.369.348l24.947-14.811-.427 1.709a1 1 0 0 0 1.939.486l1-4a1 1 0 0 0-.728-1.213l-4-1a1 1 0 1 0-.484 1.94l1.6.4-24.868 14.77a1 1 0 0 0-.348 1.371z" fill="currentColor" opacity="1" data-original="#494949" class=""></path><path d="M28 2V.949a.962.962 0 0 0-1.5-.8L23.428 2.2a.961.961 0 0 0 0 1.6L26.5 5.851a.962.962 0 0 0 1.5-.8V4c14.36 0 26 11.64 26 26S42.36 56 28 56 2 44.36 2 30a1 1 0 0 0-2 0c0 15.464 12.536 28 28 28s28-12.536 28-28S43.464 2 28 2zM1.147 26.989a1 1 0 0 0 1.141-.843c.048-.323.1-.644.162-.963a1 1 0 0 0-1.966-.366c-.064.343-.123.688-.174 1.037a1 1 0 0 0 .837 1.135zM2.2 21.942a1 1 0 0 0 1.276-.609c.115-.324.236-.645.362-.962a1 1 0 1 0-1.858-.742 28 28 0 0 0-.389 1.038 1 1 0 0 0 .609 1.275zM4.388 16.854a1 1 0 0 0 1.374-.333c.2-.326.405-.647.616-.964a1 1 0 0 0-1.662-1.114c-.228.34-.448.685-.661 1.036a1 1 0 0 0 .333 1.375zM8 12.861a1 1 0 0 0 .741-.328c.255-.282.518-.557.786-.828a1 1 0 0 0-1.42-1.41c-.29.292-.572.591-.848.894A1 1 0 0 0 8 12.861zM12 9.249a1 1 0 0 0 .593-.2c.264-.2.534-.386.807-.572a1 1 0 1 0-1.125-1.654c-.295.2-.584.405-.87.616a1 1 0 0 0 .595 1.8zM16.171 6.723a1 1 0 0 0 .437-.1c.267-.129.533-.253.8-.373a1 1 0 1 0-.816-1.826c-.29.13-.576.264-.861.4a1 1 0 0 0 .44 1.9z" fill="currentColor" opacity="1" data-original="#494949" class=""></path></g></svg>
